<?xml version="1.0" encoding="UTF-8"?>
<svg version="1.1" xmlns="http://www.w3.org/2000/svg" width="500" height="500">
<path d="M0 0 C0.81726563 0.10183594 1.63453125 0.20367187 2.4765625 0.30859375 C3.10304688 0.39238281 3.72953125 0.47617188 4.375 0.5625 C5.61305062 5.36917156 5.51432139 10.06979024 5.50198364 14.99589539 C5.50354363 15.95022408 5.50510362 16.90455277 5.50671089 17.88780051 C5.51070155 21.08756954 5.50753873 24.28729117 5.50439453 27.48706055 C5.5057494 29.78009061 5.50752982 32.07312047 5.50970459 34.3661499 C5.51426795 40.59513371 5.51249405 46.82410098 5.5093255 53.05308509 C5.50679718 59.56377695 5.50914068 66.07446738 5.51071167 72.5851593 C5.51264821 84.21663283 5.50953778 95.8480988 5.50445233 107.47957114 C5.49998146 118.03236431 5.50076331 128.58514648 5.50537109 139.13793945 C5.51071817 151.38962724 5.51271723 163.6413072 5.50975883 175.89299613 C5.50819668 182.37973883 5.50800068 188.86647395 5.51129532 195.35321617 C5.51417443 201.44755689 5.5121976 207.54187675 5.50640106 213.63621521 C5.50507386 215.87844623 5.50546692 218.12067898 5.50766373 220.36290932 C5.51037665 223.41198213 5.50699236 226.46098711 5.50198364 229.51005554 C5.50421436 230.40741021 5.50644509 231.30476488 5.50874341 232.22931212 C5.48915027 238.33419945 5.48915027 238.33419945 4.375 240.5625 C2.72925434 240.58938151 1.08338587 240.60884123 -0.5625 240.625 C-1.47902344 240.63660156 -2.39554688 240.64820313 -3.33984375 240.66015625 C-5.625 240.5625 -5.625 240.5625 -6.625 239.5625 C-6.73287538 238.05741801 -6.77182432 236.54733684 -6.78321838 235.03843689 C-6.79299241 234.0630619 -6.80276644 233.0876869 -6.81283665 232.08275509 C-6.8186069 230.99962316 -6.82437716 229.91649122 -6.83032227 228.80053711 C-6.84537135 227.075636 -6.84537135 227.075636 -6.86072445 225.3158884 C-6.89223993 221.57389438 -6.91693419 217.8318898 -6.94140625 214.08984375 C-6.95979766 211.78747196 -6.97863367 209.48510368 -6.9979248 207.18273926 C-7.0665163 198.62186773 -7.12647679 190.06092882 -7.1875 181.5 C-7.331875 162.380625 -7.47625 143.26125 -7.625 123.5625 C-56.795 123.5625 -105.965 123.5625 -156.625 123.5625 C-156.50616588 161.31915561 -156.50616588 161.31915561 -156.35473633 199.07568359 C-156.34118652 206.36645508 -156.34118652 206.36645508 -156.33866882 209.77603149 C-156.33405216 212.16512729 -156.32348069 214.55421596 -156.30827332 216.94326782 C-156.28642441 220.55523892 -156.28327825 224.16678167 -156.28442383 227.77880859 C-156.2736295 228.84897406 -156.26283518 229.91913952 -156.25171375 231.02173424 C-156.25791249 232.47426818 -156.25791249 232.47426818 -156.26423645 233.95614624 C-156.26147107 234.8023522 -156.25870569 235.64855816 -156.25585651 236.52040672 C-156.37767386 237.1942975 -156.49949121 237.86818829 -156.625 238.5625 C-159.9475225 240.777515 -160.50231591 240.75660876 -164.25 240.25 C-165.04664063 240.15074219 -165.84328125 240.05148437 -166.6640625 239.94921875 C-168.625 239.5625 -168.625 239.5625 -169.625 238.5625 C-169.72523532 235.54786075 -169.75937952 232.55605282 -169.75198364 229.54092407 C-169.75354363 228.58255154 -169.75510362 227.62417901 -169.75671089 226.63676488 C-169.76072539 223.39926679 -169.75752949 220.16181492 -169.75439453 216.92431641 C-169.75574839 214.61379468 -169.75752823 212.30327317 -169.75970459 209.99275208 C-169.76428126 203.69735073 -169.76248827 197.40196569 -169.7593255 191.10656404 C-169.7568025 184.53225439 -169.75913933 177.95794618 -169.76071167 171.38363647 C-169.76285106 159.63023546 -169.75953262 147.87684133 -169.75445233 136.1234415 C-169.74998637 125.46119689 -169.75075846 114.79896317 -169.75537109 104.13671875 C-169.76071997 91.76675705 -169.76271587 79.39680231 -169.75975883 67.02683961 C-169.75819681 60.47461267 -169.75800021 53.92239324 -169.76129532 47.37016678 C-169.7641768 41.20939319 -169.76219318 35.04864023 -169.75640106 28.88786888 C-169.75507485 26.62187293 -169.75546525 24.35587526 -169.75766373 22.08987999 C-169.76038069 19.00591069 -169.75698728 15.92200821 -169.75198364 12.83804321 C-169.75421436 11.93309101 -169.75644509 11.0281388 -169.75874341 10.0957638 C-169.75613566 9.2718094 -169.75352791 8.44785499 -169.75084114 7.59893227 C-169.75067879 6.88673928 -169.75051644 6.17454629 -169.75034916 5.4407717 C-169.625 3.5625 -169.625 3.5625 -168.625 0.5625 C-166.81257948 0.53562721 -165.00004767 0.51616285 -163.1875 0.5 C-162.17816406 0.48839844 -161.16882813 0.47679688 -160.12890625 0.46484375 C-157.625 0.5625 -157.625 0.5625 -156.625 1.5625 C-156.51736325 2.9915161 -156.4781936 4.42576126 -156.46678162 5.85877991 C-156.45700759 6.78377572 -156.44723356 7.70877153 -156.43716335 8.66179752 C-156.4313931 9.68871928 -156.42562284 10.71564104 -156.41967773 11.77368164 C-156.40964501 12.8641426 -156.39961229 13.95460356 -156.38927555 15.07810879 C-156.35776224 18.62626929 -156.33306671 22.17444091 -156.30859375 25.72265625 C-156.29020214 27.90588761 -156.27136612 30.08911527 -156.2520752 32.27233887 C-156.18348612 40.38984877 -156.12352407 48.5074297 -156.0625 56.625 C-155.918125 74.754375 -155.77375 92.88375 -155.625 111.5625 C-106.455 111.5625 -57.285 111.5625 -6.625 111.5625 C-6.625 74.9325 -6.625 38.3025 -6.625 0.5625 C-4.10446405 -0.69776798 -2.7707902 -0.35624445 0 0 Z " fill="#014BAB" transform="translate(377.625,108.4375)"/>
<path d="M0 0 C-0.33 3.63 -0.66 7.26 -1 11 C-1.90878906 11.31710938 -2.81757813 11.63421875 -3.75390625 11.9609375 C-28.17205603 20.86263602 -46.12854463 38.17970106 -57.28344727 61.55102539 C-60.34876238 68.28744624 -62.85005882 75.13237399 -64.875 82.25 C-65.06618408 82.92135986 -65.25736816 83.59271973 -65.4543457 84.28442383 C-68.7888809 96.95505213 -69.37471495 109.67110959 -69.3125 122.6875 C-69.31067719 123.47958862 -69.30885437 124.27167725 -69.30697632 125.08776855 C-69.26111993 136.92797766 -68.90266569 148.46076111 -66 160 C-65.83371094 160.67788574 -65.66742188 161.35577148 -65.49609375 162.05419922 C-62.1827683 175.04059425 -56.73377253 188.2945145 -48.03125 198.6171875 C-47 200 -47 200 -47 202 C-46.01 202.33 -45.02 202.66 -44 203 C-43.443125 203.721875 -42.88625 204.44375 -42.3125 205.1875 C-32.23956189 217.43837067 -15.90745027 223.27313743 -1 227 C-0.505 232.445 -0.505 232.445 0 238 C-4.5610818 240.2805409 -12.80502955 236.360176 -17.54736328 234.85498047 C-27.69065173 231.31906606 -36.91971618 226.06820786 -45 219 C-45.64839844 218.49339844 -46.29679687 217.98679687 -46.96484375 217.46484375 C-68.81464232 199.85520411 -78.36227219 170.125473 -81.69091797 143.27099609 C-83.92452531 119.63286718 -82.38124128 94.66916812 -75 72 C-74.79004395 71.35514648 -74.58008789 70.71029297 -74.36376953 70.04589844 C-64.78025121 41.2187867 -45.81226205 18.64529532 -18.7734375 4.8046875 C-5.37079327 -1.79026442 -5.37079327 -1.79026442 0 0 Z " fill="#5B17E3" transform="translate(199,109)"/>
<path d="M0 0 C1.81242052 -0.02687279 3.62495233 -0.04633715 5.4375 -0.0625 C6.44683594 -0.07410156 7.45617187 -0.08570312 8.49609375 -0.09765625 C11 0 11 0 12 1 C12.10767826 2.44169463 12.14680953 3.88857858 12.15821838 5.33424377 C12.1680072 6.26958954 12.17779602 7.2049353 12.18788147 8.16862488 C12.19363693 9.20296158 12.1993924 10.23729828 12.20532227 11.30297852 C12.21522186 12.38577087 12.22512146 13.46856323 12.23532104 14.58416748 C12.26704412 18.18239109 12.29173603 21.78062793 12.31640625 25.37890625 C12.33696645 27.86612807 12.35796266 30.35334632 12.37937927 32.84056091 C12.42903483 38.73017888 12.47427503 44.61981797 12.51740164 50.50948709 C12.57156899 57.87029421 12.63254604 65.23104219 12.69335938 72.59179688 C12.80105878 85.72782439 12.90266665 98.8638918 13 112 C11.68 112 10.36 112 9 112 C9 112.99 9 113.98 9 115 C9.66 115 10.32 115 11 115 C11 116.32 11 117.64 11 119 C11.66 119.33 12.32 119.66 13 120 C12.34 120 11.68 120 11 120 C11 121.65 11 123.3 11 125 C11.33 125 11.66 125 12 125 C12.07001853 139.6987921 12.12295297 154.39756218 12.15543652 169.09648705 C12.17091874 175.92115217 12.19203393 182.7457138 12.22631836 189.5703125 C12.25936394 196.15143229 12.27683321 202.7324725 12.28463173 209.31367874 C12.29019214 211.82960329 12.30104959 214.34552168 12.31719017 216.8614006 C12.33883939 220.37436604 12.34197214 223.88688138 12.34057617 227.39990234 C12.351362 228.44934525 12.36214783 229.49878815 12.3732605 230.58003235 C12.36707451 232.01035545 12.36707451 232.01035545 12.36076355 233.46957397 C12.36352893 234.30103125 12.36629431 235.13248852 12.36914349 235.98914146 C12.24732614 236.65272478 12.12550879 237.3163081 12 238 C8.6774775 240.215015 8.12268409 240.19410876 4.375 239.6875 C3.57835937 239.58824219 2.78171875 239.48898437 1.9609375 239.38671875 C0 239 0 239 -1 238 C-1.10023532 234.98536075 -1.13437952 231.99355282 -1.12698364 228.97842407 C-1.12854363 228.02005154 -1.13010362 227.06167901 -1.13171089 226.07426488 C-1.13572539 222.83676679 -1.13252949 219.59931492 -1.12939453 216.36181641 C-1.13074839 214.05129468 -1.13252823 211.74077317 -1.13470459 209.43025208 C-1.13928126 203.13485073 -1.13748827 196.83946569 -1.1343255 190.54406404 C-1.1318025 183.96975439 -1.13413933 177.39544618 -1.13571167 170.82113647 C-1.13785106 159.06773546 -1.13453262 147.31434133 -1.12945233 135.5609415 C-1.12498637 124.89869689 -1.12575846 114.23646317 -1.13037109 103.57421875 C-1.13571997 91.20425705 -1.13771587 78.83430231 -1.13475883 66.46433961 C-1.13319681 59.91211267 -1.13300021 53.35989324 -1.13629532 46.80766678 C-1.1391768 40.64689319 -1.13719318 34.48614023 -1.13140106 28.32536888 C-1.13007485 26.05937293 -1.13046525 23.79337526 -1.13266373 21.52737999 C-1.13538069 18.44341069 -1.13198728 15.35950821 -1.12698364 12.27554321 C-1.12921436 11.37059101 -1.13144509 10.4656388 -1.13374341 9.5332638 C-1.13113566 8.7093094 -1.12852791 7.88535499 -1.12584114 7.03643227 C-1.12567879 6.32423928 -1.12551644 5.61204629 -1.12534916 4.8782717 C-1 3 -1 3 0 0 Z " fill="#025BAB" transform="translate(209,109)"/>
<path d="M0 0 C0.33 0 0.66 0 1 0 C1.81869873 27.22091589 2.16358924 54.41920468 2.16725707 81.65183997 C2.16798083 84.68737253 2.17013855 87.7229009 2.17275429 90.75843239 C2.18189133 101.38493757 2.18610143 112.01143047 2.18530273 122.63793945 C2.18469523 132.5009594 2.19540647 142.36392587 2.2110464 152.22693223 C2.22410103 160.76702684 2.22948797 169.3071038 2.22884732 177.84720832 C2.22859305 182.91893263 2.23140993 187.9906084 2.24202538 193.06232262 C2.25167863 197.79795481 2.25180484 202.5334914 2.24450874 207.26912689 C2.24346161 209.00378623 2.24583343 210.7384515 2.2518692 212.47310066 C2.25956923 214.83839682 2.25495885 217.20336047 2.24723816 219.56864929 C2.25238172 220.25440763 2.25752529 220.94016596 2.26282471 221.64670485 C2.23474428 225.53431306 1.69552929 228.4945132 0 232 C-2.64 232 -5.28 232 -8 232 C-8.33 193.72 -8.66 155.44 -9 116 C-6.525 115.01 -6.525 115.01 -4 114 C0.06461765 109.52861837 -0.55945472 104.12823458 -0.56762695 98.42651367 C-0.5574353 97.36264435 -0.54724365 96.29877502 -0.53674316 95.20266724 C-0.50658225 91.69104772 -0.49734223 88.17970085 -0.48828125 84.66796875 C-0.47143691 82.23129874 -0.45328701 79.79463743 -0.43388367 77.35798645 C-0.3863512 70.94815795 -0.35656263 64.53836473 -0.33044434 58.12841797 C-0.30065536 51.58619213 -0.25411927 45.0440879 -0.20898438 38.50195312 C-0.1229142 25.66803484 -0.05501652 12.83408705 0 0 Z " fill="#0354AD" transform="translate(381,114)"/>
<path d="M0 0 C19.30997755 -1.37928411 40.29001463 8.14511727 55 20 C55.7940625 20.58652344 56.588125 21.17304687 57.40625 21.77734375 C60.42511729 24.36429478 62.75823694 27.2709592 65.125 30.4375 C65.76888672 31.27764648 65.76888672 31.27764648 66.42578125 32.13476562 C73 40.80262019 73 40.80262019 73 45 C71.03125 46.60546875 71.03125 46.60546875 68.5 48.1875 C67.6646875 48.71730469 66.829375 49.24710938 65.96875 49.79296875 C65.3190625 50.19128906 64.669375 50.58960938 64 51 C63.25556641 49.948125 63.25556641 49.948125 62.49609375 48.875 C49.48329241 30.70152412 35.24928051 17.30714078 12.43359375 13.3359375 C8.29966717 12.76528311 4.15921554 12.336277 0 12 C-1.16063604 7.74433453 -0.76173392 4.3164922 0 0 Z " fill="#5917DD" transform="translate(229,105)"/>
<path d="M0 0 C4.43458973 1.3937282 6.87378374 3.60582235 10 7 C-2.581978 29.61055458 -20.55032141 43.82833391 -45.6328125 51.1875 C-51.35917442 52.56926714 -57.15238118 53.3337046 -63 54 C-63 50.04 -63 46.08 -63 42 C-61.99582031 41.84144531 -60.99164063 41.68289063 -59.95703125 41.51953125 C-37.57409686 37.78537315 -20.07363463 28.10326506 -6 10 C-3.86207319 6.73829115 -1.88219875 3.41505 0 0 Z " fill="#5918E0" transform="translate(292,295)"/>
<path d="M0 0 C1.11375 0.556875 2.2275 1.11375 3.375 1.6875 C4.11492187 2.05359375 4.85484375 2.4196875 5.6171875 2.796875 C7.15613154 3.5739156 8.68347739 4.3745748 10.1953125 5.203125 C17.78006625 9.26546769 25.77569817 11.60209562 34 14 C34.495 19.445 34.495 19.445 35 25 C30.4389182 27.2805409 22.19497045 23.360176 17.45263672 21.85498047 C7.35724252 18.33576183 -2.00039309 13.1107617 -10 6 C-7.13411489 4.56705745 -5.09628564 5.43129447 -2 6 C-1.01 6 -0.02 6 1 6 C0.01 7.485 0.01 7.485 -1 9 C0.32 9 1.64 9 3 9 C4.67225729 9.30404678 6.34080104 9.63128912 8 10 C8 9.01 8 8.02 8 7 C7.01 7 6.02 7 5 7 C5 6.01 5 5.02 5 4 C3.35 3.67 1.7 3.34 0 3 C0 2.01 0 1.02 0 0 Z " fill="#4819B2" transform="translate(164,322)"/>
<path d="M0 0 C-0.33 3.63 -0.66 7.26 -1 11 C-1.90878906 11.31710938 -2.81757813 11.63421875 -3.75390625 11.9609375 C-17.92917542 17.13340679 -29.89694006 24.66485958 -40 36 C-40.495 34.515 -40.495 34.515 -41 33 C-41.66 32.67 -42.32 32.34 -43 32 C-42 31 -42 31 -39.4375 30.9375 C-38.2309375 30.9684375 -38.2309375 30.9684375 -37 31 C-37 29.35 -37 27.7 -37 26 C-36.01 25.67 -35.02 25.34 -34 25 C-34 24.34 -34 23.68 -34 23 C-32.68 23.33 -31.36 23.66 -30 24 C-30 23.34 -30 22.68 -30 22 C-29.01 22 -28.02 22 -27 22 C-27 21.34 -27 20.68 -27 20 C-26.34 20 -25.68 20 -25 20 C-25 19.34 -25 18.68 -25 18 C-23.68 18 -22.36 18 -21 18 C-21 17.34 -21 16.68 -21 16 C-20.01 16 -19.02 16 -18 16 C-18 14.35 -18 12.7 -18 11 C-21.3 11 -24.6 11 -28 11 C-22.43493816 5.43493816 -8.09646902 -2.69882301 0 0 Z " fill="#5419CF" transform="translate(199,109)"/>
<path d="M0 0 C1.10008392 0.00559433 2.20016785 0.01118866 3.33358765 0.01695251 C5.14517616 0.03401497 5.14517616 0.03401497 6.99336243 0.05142212 C8.26532471 0.05942337 9.53728699 0.06742462 10.84779358 0.07566833 C14.34242705 0.09788542 17.83698039 0.12656833 21.33155417 0.15662336 C25.00093036 0.18733687 28.67034278 0.2129398 32.3397522 0.23931885 C38.51615068 0.28454974 44.69250486 0.33399966 50.86885071 0.38589478 C57.97186568 0.44552185 65.07490605 0.49843583 72.17800015 0.54766309 C79.03746076 0.59537529 85.89687433 0.64812476 92.7562809 0.703022 C95.65973289 0.72616509 98.56318961 0.74758235 101.46666527 0.76752853 C130.55204589 0.9706376 130.55204589 0.9706376 143.69770813 2.08901978 C143.69770813 2.41901978 143.69770813 2.74901978 143.69770813 3.08901978 C93.53770813 3.08901978 43.37770813 3.08901978 -8.30229187 3.08901978 C-8.30229187 2.42901978 -8.30229187 1.76901978 -8.30229187 1.08901978 C-5.23591484 0.0668941 -3.20826866 -0.02345206 0 0 Z " fill="#073F7C" transform="translate(228.3022918701172,219.91098022460938)"/>
<path d="M0 0 C4.43458973 1.3937282 6.87378374 3.60582235 10 7 C4.84372637 16.05948636 -0.71132409 23.54703017 -8 31 C-8.66 30.01 -9.32 29.02 -10 28 C-9.67 27.34 -9.34 26.68 -9 26 C-7.68 25.67 -6.36 25.34 -5 25 C-5.66 22.36 -6.32 19.72 -7 17 C-7.4125 17.639375 -7.825 18.27875 -8.25 18.9375 C-10 21 -10 21 -12.0625 21.5 C-13.0215625 21.7475 -13.0215625 21.7475 -14 22 C-14.309375 22.66 -14.61875 23.32 -14.9375 24 C-15.288125 24.66 -15.63875 25.32 -16 26 C-18.625 26.75 -18.625 26.75 -21 27 C-18.31723724 23.83571572 -15.64485549 20.68853554 -12.80859375 17.66015625 C-7.66862544 12.15491101 -3.59294624 6.62229306 0 0 Z " fill="#5816C8" transform="translate(292,295)"/>
<path d="M0 0 C0.99 0.33 1.98 0.66 3 1 C3.33 42.91 3.66 84.82 4 128 C6.31 128.33 8.62 128.66 11 129 C11.33 127.68 11.66 126.36 12 125 C12 126.98 12 128.96 12 131 C9.50331711 132.24834144 8.18670849 131.95155125 5.4375 131.625 C4.63183594 131.53476562 3.82617188 131.44453125 2.99609375 131.3515625 C1 131 1 131 0 130 C-0.09616807 128.31708304 -0.12187691 126.63010439 -0.12025452 124.94444275 C-0.12162918 123.84922806 -0.12300385 122.75401337 -0.12442017 121.62561035 C-0.12082489 120.41360962 -0.11722961 119.20160889 -0.11352539 117.95288086 C-0.11367142 116.68477066 -0.11381744 115.41666046 -0.1139679 114.11012268 C-0.11425585 110.62267578 -0.10835945 107.13526299 -0.10139394 103.64782405 C-0.09516007 100.00696277 -0.09455658 96.36610078 -0.09336853 92.72523499 C-0.09025531 85.82623028 -0.08204205 78.92724135 -0.07201904 72.0282436 C-0.06085761 64.17589315 -0.05534738 56.32354197 -0.05032361 48.47118556 C-0.03985943 32.31411447 -0.02226017 16.15705924 0 0 Z " fill="#05A2CB" transform="translate(208,217)"/>
<path d="M0 0 C0.66 0 1.32 0 2 0 C2 37.95 2 75.9 2 115 C4.64 115 7.28 115 10 115 C10.33 113.35 10.66 111.7 11 110 C11.33 110 11.66 110 12 110 C12.125 115.75 12.125 115.75 11 118 C9.35425434 118.02688151 7.70838587 118.04634123 6.0625 118.0625 C5.14597656 118.07410156 4.22945313 118.08570313 3.28515625 118.09765625 C1 118 1 118 0 117 C-0.09578593 115.4818148 -0.12188147 113.95917604 -0.12025452 112.43797302 C-0.12162918 111.45214233 -0.12300385 110.46631165 -0.12442017 109.4506073 C-0.12082489 108.36016617 -0.11722961 107.26972504 -0.11352539 106.14624023 C-0.11367142 105.00492645 -0.11381744 103.86361267 -0.1139679 102.68771362 C-0.11326818 98.89465469 -0.10547307 95.10164416 -0.09765625 91.30859375 C-0.09579228 88.68685432 -0.09436828 86.06511454 -0.09336853 83.44337463 C-0.09025551 77.23498045 -0.08204252 71.02660379 -0.07201904 64.81821734 C-0.06085699 57.75182559 -0.05534722 50.68543301 -0.05032361 43.61903465 C-0.03985988 29.07934737 -0.022261 14.53967393 0 0 Z " fill="#053570" transform="translate(371,231)"/>
<path d="M0 0 C1.875 0.1875 1.875 0.1875 4 1 C5.25 3.5625 5.25 3.5625 6 6 C6.66 6 7.32 6 8 6 C8.99 7.485 8.99 7.485 10 9 C10.99 9.33 11.98 9.66 13 10 C13.33 10.66 13.66 11.32 14 12 C15.64363134 12.72159424 17.31050386 13.39351421 19 14 C19 14.99 19 15.98 19 17 C20.65 17.33 22.3 17.66 24 18 C24 18.99 24 19.98 24 21 C24.99 21 25.98 21 27 21 C27 21.99 27 22.98 27 24 C24 24 21 24 18 24 C17.34 23.34 16.68 22.68 16 22 C16.99 21.34 17.98 20.68 19 20 C18.01 20.33 17.02 20.66 16 21 C13.64811553 20.40206327 11.31074405 19.74118205 9 19 C8.67 17.35 8.34 15.7 8 14 C6.68 14 5.36 14 4 14 C3.9175 13.21625 3.835 12.4325 3.75 11.625 C3.27193661 8.85250896 3.27193661 8.85250896 0.9375 7.6875 C0.298125 7.460625 -0.34125 7.23375 -1 7 C-0.67 4.69 -0.34 2.38 0 0 Z " fill="#5D17EA" transform="translate(145,308)"/>
<path d="M0 0 C0 0.66 0 1.32 0 2 C1.32 2.33 2.64 2.66 4 3 C2.68 3 1.36 3 0 3 C0 3.66 0 4.32 0 5 C-0.99 5 -1.98 5 -3 5 C-3 5.66 -3 6.32 -3 7 C-4.32 7 -5.64 7 -7 7 C-7 7.66 -7 8.32 -7 9 C-7.66 9 -8.32 9 -9 9 C-9 9.66 -9 10.32 -9 11 C-9.99 11 -10.98 11 -12 11 C-12 11.66 -12 12.32 -12 13 C-13.32 12.67 -14.64 12.34 -16 12 C-16 12.66 -16 13.32 -16 14 C-16.99 14.495 -16.99 14.495 -18 15 C-18.65555119 17.52733235 -18.65555119 17.52733235 -19 20 C-20.65 20 -22.3 20 -24 20 C-24 17.36 -24 14.72 -24 12 C-23.01 11.67 -22.02 11.34 -21 11 C-19.79117904 8.99983534 -19.79117904 8.99983534 -19 7 C-18.01 7 -17.02 7 -16 7 C-16 6.34 -16 5.68 -16 5 C-14.02 4.34 -12.04 3.68 -10 3 C-10 2.01 -10 1.02 -10 0 C-6.42355152 -1.2380014 -3.66305234 -0.74926071 0 0 Z " fill="#5D17EA" transform="translate(181,120)"/>
<path d="M0 0 C7.26879862 0.62662057 7.26879862 0.62662057 10.9375 2.5 C14.91800389 4.44963456 18.62138686 4.71782271 23 5 C23 7.64 23 10.28 23 13 C21.35 13 19.7 13 18 13 C18 12.67 18 12.34 18 12 C15.03 11.67 12.06 11.34 9 11 C9 10.34 9 9.68 9 9 C6.03 8.67 3.06 8.34 0 8 C0 7.34 0 6.68 0 6 C-1.32 5.34 -2.64 4.68 -4 4 C-4 3.34 -4 2.68 -4 2 C-2.68 2 -1.36 2 0 2 C0 1.34 0 0.68 0 0 Z " fill="#5C17E9" transform="translate(174,332)"/>
<path d="M0 0 C3.47226667 3.19814036 5.30587154 5.64366968 7 10 C7.99 10.33 8.98 10.66 10 11 C11.36639342 12.6396721 12.6949419 14.31110128 14 16 C15.64783606 17.68528688 17.31002677 19.35697047 19 21 C18.34 21.33 17.68 21.66 17 22 C17 21.34 17 20.68 17 20 C15.68 19.67 14.36 19.34 13 19 C13 18.34 13 17.68 13 17 C12.443125 16.938125 11.88625 16.87625 11.3125 16.8125 C7.98470782 15.64327572 6.26866168 13.64677196 4 11 C4 10.01 4 9.02 4 8 C2.68 8.33 1.36 8.66 0 9 C0 10.65 0 12.3 0 14 C1.32 14.66 2.64 15.32 4 16 C4 17.65 4 19.3 4 21 C5.32 21 6.64 21 8 21 C8.33 22.65 8.66 24.3 9 26 C4.39123153 23.19437014 1.25701077 20.29737914 -2.1875 16.0625 C-2.61224609 15.55009766 -3.03699219 15.03769531 -3.47460938 14.50976562 C-10 6.52301225 -10 6.52301225 -10 3 C-8.02 3.99 -8.02 3.99 -6 5 C-6 5.66 -6 6.32 -6 7 C-4.02 6.34 -2.04 5.68 0 5 C0 3.35 0 1.7 0 0 Z " fill="#5A1ADF" transform="translate(145,301)"/>
<path d="M0 0 C1.0904811 0.00092179 2.1809622 0.00184359 3.30448818 0.00279331 C4.55115765 0.00141865 5.79782711 0.00004398 7.08227444 -0.00137234 C8.47653127 0.00216727 9.87078785 0.00580209 11.26504421 0.00952244 C12.72330123 0.0098043 14.18155839 0.00964659 15.63981533 0.00907993 C19.61071618 0.00879193 23.58158708 0.01468906 27.55248094 0.02165389 C31.69783233 0.02788702 35.84318434 0.02849119 39.9885397 0.0296793 C47.84377459 0.03279274 55.69899564 0.04100629 63.55422443 0.05102879 C72.49482531 0.06218954 81.43542684 0.06770028 90.37603295 0.07272422 C108.77255694 0.0831889 127.16906802 0.10078858 145.56558132 0.12304783 C145.56558132 0.45304783 145.56558132 0.78304783 145.56558132 1.12304783 C97.05558132 1.45304783 48.54558132 1.78304783 -1.43441868 2.12304783 C-2.09441868 3.44304783 -2.75441868 4.76304783 -3.43441868 6.12304783 C-3.47713968 4.45692878 -3.475057 2.78921898 -3.43441868 1.12304783 C-2.43441868 0.12304783 -2.43441868 0.12304783 0 0 Z " fill="#134883" transform="translate(222.4344186782837,229.87695217132568)"/>
<path d="M0 0 C50.82 0 101.64 0 154 0 C152.68 0.99 151.36 1.98 150 3 C149.01 2.505 149.01 2.505 148 2 C146.04909977 1.89422267 144.0945701 1.85335194 142.14083862 1.84178162 C140.26877243 1.82709839 140.26877243 1.82709839 138.35888672 1.81211853 C136.9682621 1.80621396 135.57763708 1.80040354 134.18701172 1.79467773 C132.72860433 1.78510177 131.27019974 1.77509186 129.8117981 1.76467896 C125.84511871 1.73759328 121.87842739 1.71660359 117.91170645 1.69667697 C113.76900641 1.67483997 109.62634334 1.64744012 105.4836731 1.62062073 C97.63558155 1.57066287 89.78746952 1.52573554 81.93933785 1.48259836 C73.00594251 1.43325239 64.07258426 1.37832449 55.13922477 1.32291877 C36.75951759 1.20905125 18.37977544 1.10222262 0 1 C0 0.67 0 0.34 0 0 Z " fill="#084AA1" transform="translate(220,229)"/>
<path d="M0 0 C0.33 0.99 0.66 1.98 1 3 C1.87011719 3.05607422 1.87011719 3.05607422 2.7578125 3.11328125 C7.81678864 3.53903667 11.54279158 4.37138991 16 7 C15.01 7.66 14.02 8.32 13 9 C12.67 9.99 12.34 10.98 12 12 C10.00045254 12.04254356 7.99958364 12.04080783 6 12 C5.67 11.67 5.34 11.34 5 11 C3.15108054 10.76636119 1.29511969 10.58696365 -0.5625 10.4375 C-1.57441406 10.35371094 -2.58632812 10.26992187 -3.62890625 10.18359375 C-4.41136719 10.12300781 -5.19382813 10.06242187 -6 10 C-6 7.36 -6 4.72 -6 2 C-4.02 2 -2.04 2 0 2 C0 1.34 0 0.68 0 0 Z " fill="#5D17E8" transform="translate(237,105)"/>
<path d="M0 0 C-0.66 1.65 -1.32 3.3 -2 5 C-1.01 5.33 -0.02 5.66 1 6 C0.67 6.99 0.34 7.98 0 9 C-1.32 9 -2.64 9 -4 9 C-4 9.99 -4 10.98 -4 12 C-6.64 12.33 -9.28 12.66 -12 13 C-12 13.66 -12 14.32 -12 15 C-13.32 15 -14.64 15 -16 15 C-16 15.66 -16 16.32 -16 17 C-17.65 16.67 -19.3 16.34 -21 16 C-20.505 15.608125 -20.01 15.21625 -19.5 14.8125 C-17.53886798 12.44279881 -17.84234938 10.99536172 -18 8 C-16.49941938 6.49941938 -14.88673982 6.59744386 -12.8125 6.25 C-8.15961065 5.28682227 -3.97048677 0 0 0 Z " fill="#5D17E8" transform="translate(273,324)"/>
<path d="M0 0 C0.33 0 0.66 0 1 0 C1.96118163 7.17975822 2.10485623 14.16709526 2.02172852 21.40454102 C2.0073172 23.2206765 2.0073172 23.2206765 1.99261475 25.07350159 C1.96544431 28.36630327 1.93354118 31.65901678 1.89946485 34.9517529 C1.86488986 38.40301806 1.83646085 41.85433395 1.80735779 45.3056488 C1.75142721 51.82901435 1.6900328 58.35231636 1.62663645 64.87561315 C1.55468067 72.30732412 1.48887519 79.73908566 1.42356598 87.17085755 C1.28918229 102.44730449 1.14714114 117.72367029 1 133 C0.67 133 0.34 133 0 133 C-0.15410384 116.69258897 -0.30213089 100.38513578 -0.4429636 84.07760525 C-0.50849857 76.50540232 -0.57600693 68.93322667 -0.64819336 61.36108398 C-0.71112056 54.75967805 -0.7703121 48.15825088 -0.82505554 41.55677181 C-0.85415955 38.0627479 -0.88510851 34.56876269 -0.92053413 31.07479668 C-0.96005239 27.17026718 -0.99122886 23.26569484 -1.02172852 19.36108398 C-1.03467453 18.20805786 -1.04762054 17.05503174 -1.06095886 15.86706543 C-1.0965415 10.45949642 -0.9734086 5.32427307 0 0 Z " fill="#092E5E" transform="translate(209,209)"/>
<path d="M0 0 C1.22589844 0.15275391 1.22589844 0.15275391 2.4765625 0.30859375 C3.41628906 0.43427734 3.41628906 0.43427734 4.375 0.5625 C4.705 1.5525 5.035 2.5425 5.375 3.5625 C1.745 3.2325 -1.885 2.9025 -5.625 2.5625 C-5.625 38.8625 -5.625 75.1625 -5.625 112.5625 C-6.285 112.2325 -6.945 111.9025 -7.625 111.5625 C-7.13 56.6175 -7.13 56.6175 -6.625 0.5625 C-4.10446405 -0.69776798 -2.7707902 -0.35624445 0 0 Z " fill="#001D43" transform="translate(377.625,108.4375)"/>
<path d="M0 0 C3.93625294 1.31208431 4.46519764 2.98486688 6.5625 6.5 C8.65415979 10.40880837 8.65415979 10.40880837 12 13 C11.814375 12.154375 11.62875 11.30875 11.4375 10.4375 C10.96470368 6.7226718 11.33935369 3.67025727 12 0 C14 2 14 2 14.1953125 5.4765625 C14.18201493 6.85950968 14.15816232 8.24238654 14.125 9.625 C14.11597656 10.33140625 14.10695313 11.0378125 14.09765625 11.765625 C14.07407603 13.51056098 14.03820461 15.25532295 14 17 C12.68 17 11.36 17 10 17 C8.078125 14.8125 8.078125 14.8125 6.25 12 C5.32960937 10.6078125 5.32960937 10.6078125 4.390625 9.1875 C3.93171875 8.465625 3.4728125 7.74375 3 7 C2.67 10.63 2.34 14.26 2 18 C1.34 18 0.68 18 0 18 C-0.6401655 12.31853116 -1.24344645 6.72099149 -1 1 C-0.67 0.67 -0.34 0.34 0 0 Z " fill="#636363" transform="translate(243,380)"/>
<path d="M0 0 C0.66 0 1.32 0 2 0 C2 5.94 2 11.88 2 18 C-2.0906298 15.9546851 -2.92891126 15.06764117 -5.25 11.375 C-5.77078125 10.55773437 -6.2915625 9.74046875 -6.828125 8.8984375 C-7.21484375 8.27195312 -7.6015625 7.64546875 -8 7 C-8.06058594 7.62648438 -8.12117188 8.25296875 -8.18359375 8.8984375 C-8.26738281 9.71570313 -8.35117187 10.53296875 -8.4375 11.375 C-8.51871094 12.18710937 -8.59992188 12.99921875 -8.68359375 13.8359375 C-9 16 -9 16 -10 18 C-10.66 18 -11.32 18 -12 18 C-12 12.39 -12 6.78 -12 1 C-11.01 1 -10.02 1 -9 1 C-6.95703125 3.625 -6.95703125 3.625 -4.8125 7 C-4.44447266 7.57234375 -4.07644531 8.1446875 -3.69726562 8.734375 C-2.78874929 10.15024462 -1.89313523 11.57437797 -1 13 C-0.67 8.71 -0.34 4.42 0 0 Z " fill="#616161" transform="translate(378,380)"/>
<path d="M0 0 C7.48162592 3.11444428 7.48162592 3.11444428 9.5 6.5625 C10 9 10 9 10 12 C8.68 12 7.36 12 6 12 C6.66 12.61875 7.32 13.2375 8 13.875 C10 16 10 16 10 18 C5.35313791 16.65741859 1.7540782 14.76374371 -2.25 12.0625 C-3.28640625 11.37285156 -4.3228125 10.68320312 -5.390625 9.97265625 C-8 8 -8 8 -10 5 C-7.02148438 5.390625 -7.02148438 5.390625 -4.04296875 5.78125 C-1.84528294 6.053233 -1.84528294 6.053233 1 6 C0.01 7.485 0.01 7.485 -1 9 C0.32 9 1.64 9 3 9 C4.67225729 9.30404678 6.34080104 9.63128912 8 10 C8 9.01 8 8.02 8 7 C7.01 7 6.02 7 5 7 C5 6.01 5 5.02 5 4 C3.35 3.67 1.7 3.34 0 3 C0 2.01 0 1.02 0 0 Z " fill="#5217C8" transform="translate(164,322)"/>
<path d="M0 0 C3.19496641 2.41397462 4.70703843 4.13942538 6 7.9375 C6 11.77523843 5.10300954 13.8092269 3 17 C0.43468938 19.0345567 -0.76784648 19.01421348 -4.0625 18.8125 C-7.05890525 17.98370706 -8.15408683 17.42883312 -10 15 C-11.74780095 11.5043981 -10.84502588 7.71679351 -10 4 C-7.28606192 -0.12116524 -4.82205632 -0.88568381 0 0 Z M-8 5.0625 C-9.27791912 8.81638742 -9.00697968 11.18786264 -8 15 C-5.17431454 17.32038095 -5.17431454 17.32038095 -1.9375 16.8125 C1.29740953 16.26245502 1.29740953 16.26245502 3 13 C3.37167184 10.23979004 3.17850636 7.81147524 3 5 C1.05925114 2.65113568 1.05925114 2.65113568 -2.4375 2.5625 C-6.05881467 2.62890922 -6.05881467 2.62890922 -8 5.0625 Z " fill="#797979" transform="translate(313,380)"/>
<path d="M0 0 C1.65 0 3.3 0 5 0 C2.26314778 2.17576634 -0.38718149 3.73846668 -3.5625 5.1875 C-13.02957384 9.84435223 -20.85134683 16.29829916 -28 24 C-28.33 23.01 -28.66 22.02 -29 21 C-29.66 20.67 -30.32 20.34 -31 20 C-30 19 -30 19 -27.4375 18.9375 C-26.2309375 18.9684375 -26.2309375 18.9684375 -25 19 C-25 17.35 -25 15.7 -25 14 C-24.01 13.67 -23.02 13.34 -22 13 C-22 12.34 -22 11.68 -22 11 C-20.68 11.33 -19.36 11.66 -18 12 C-18 11.34 -18 10.68 -18 10 C-17.01 10 -16.02 10 -15 10 C-15 9.34 -15 8.68 -15 8 C-14.34 8 -13.68 8 -13 8 C-13 7.34 -13 6.68 -13 6 C-11.68 6 -10.36 6 -9 6 C-9 5.34 -9 4.68 -9 4 C-8.01 4 -7.02 4 -6 4 C-6 3.34 -6 2.68 -6 2 C-4.02 2 -2.04 2 0 2 C0 1.34 0 0.68 0 0 Z " fill="#4818A4" transform="translate(187,121)"/>
<path d="M0 0 C2.64 0.33 5.28 0.66 8 1 C8 1.33 8 1.66 8 2 C6.02 2 4.04 2 2 2 C2 4.64 2 7.28 2 10 C2.78246094 9.98839844 3.56492188 9.97679688 4.37109375 9.96484375 C5.38300781 9.95582031 6.39492187 9.94679688 7.4375 9.9375 C8.44683594 9.92589844 9.45617187 9.91429688 10.49609375 9.90234375 C13 10 13 10 14 11 C16.18639453 11.07258946 18.37500389 11.08373783 20.5625 11.0625 C21.76003906 11.05347656 22.95757812 11.04445313 24.19140625 11.03515625 C25.58166016 11.01775391 25.58166016 11.01775391 27 11 C27 12.65 27 14.3 27 16 C27.99 16 28.98 16 30 16 C30 16.66 30 17.32 30 18 C29.39414062 17.80664062 28.78828125 17.61328125 28.1640625 17.4140625 C18.84504147 14.5179975 9.72497633 12.78627468 0 12 C-1.16063604 7.74433453 -0.76173392 4.3164922 0 0 Z " fill="#4C17A1" transform="translate(229,105)"/>
<path d="M0 0 C0.66 0 1.32 0 2 0 C3.09658936 3.28976808 2.79953138 4.71303767 2 8 C5.3 8 8.6 8 12 8 C12 5.36 12 2.72 12 0 C12.66 0.33 13.32 0.66 14 1 C14 6.61 14 12.22 14 18 C13.34 18 12.68 18 12 18 C11.67 16.02 11.34 14.04 11 12 C8.36 11.67 5.72 11.34 3 11 C2.67 13.31 2.34 15.62 2 18 C1.34 18 0.68 18 0 18 C0 12.06 0 6.12 0 0 Z " fill="#777777" transform="translate(280,380)"/>
<path d="M0 0 C0.66 0 1.32 0 2 0 C4.31 5.94 6.62 11.88 9 18 C8.01 18 7.02 18 6 18 C4.3125 16 4.3125 16 3 14 C-0.49529294 15.11213866 -3.74469192 16.31573191 -7 18 C-5.06375702 11.79522136 -2.74390859 5.89174281 0 0 Z M0 6 C0 7.98 0 9.96 0 12 C0.99 12 1.98 12 3 12 C3 10.35 3 8.7 3 7 C2.01 6.67 1.02 6.34 0 6 Z " fill="#575757" transform="translate(350,380)"/>
<path d="M0 0 C0.66 0 1.32 0 2 0 C2.01981934 0.79470703 2.03963867 1.58941406 2.06005859 2.40820312 C1.16981532 25.2621059 1.16981532 25.2621059 6 47 C6.13415472 49.6723621 6.04318541 52.32250488 6 55 C-3.43819261 40.84271109 -0.44902718 16.24960283 0 0 Z " fill="#45159B" transform="translate(117,220)"/>
<path d="M0 0 C0.33 1.65 0.66 3.3 1 5 C0.34 5 -0.32 5 -1 5 C-1 5.99 -1 6.98 -1 8 C-1.66 8 -2.32 8 -3 8 C-3 8.99 -3 9.98 -3 11 C-5.26216255 12.54779543 -7.55224566 13.77612283 -10 15 C-9.7215625 13.824375 -9.7215625 13.824375 -9.4375 12.625 C-8.74037734 10.02910225 -8.74037734 10.02910225 -10 8 C-9.71887936 5.99199544 -9.38932033 3.98985949 -9 2 C-8.34 2 -7.68 2 -7 2 C-7 1.34 -7 0.68 -7 0 C-4.3333581 -1.33332095 -2.83319697 -0.67102033 0 0 Z " fill="#5E17E9" transform="translate(298,300)"/>
<path d="M0 0 C2.95514876 2.75134539 5.1524809 5.39733775 7 9 C7 9.99 7 10.98 7 12 C5.03125 13.60546875 5.03125 13.60546875 2.5 15.1875 C1.6646875 15.71730469 0.829375 16.24710938 -0.03125 16.79296875 C-0.6809375 17.19128906 -1.330625 17.58960938 -2 18 C-2.83905565 16.87926138 -3.67107831 15.75325453 -4.5 14.625 C-5.19609375 13.68527344 -5.19609375 13.68527344 -5.90625 12.7265625 C-7 11 -7 11 -7 9 C-6.01 9.33 -5.02 9.66 -4 10 C-4 10.66 -4 11.32 -4 12 C-3.34 12.33 -2.68 12.66 -2 13 C-0.81957444 8.78419444 0 4.38457241 0 0 Z " fill="#5117B8" transform="translate(295,138)"/>
<path d="M0 0 C0.4125 0.45375 0.825 0.9075 1.25 1.375 C2.89989203 3.12309348 2.89989203 3.12309348 5.125 3.75 C7 5 7 5 7.9375 8.25 C8.00695314 12.41718827 7.14464422 14.48278348 5 18 C4.01 17.67 3.02 17.34 2 17 C2 16.34 2 15.68 2 15 C1.34 14.67 0.68 14.34 0 14 C0.33 12.68 0.66 11.36 1 10 C0.34 9.67 -0.32 9.34 -1 9 C-1.59355614 6.35139573 -1.74209269 3.70802678 -2 1 C-1.34 0.67 -0.68 0.34 0 0 Z " fill="#5C18E7" transform="translate(288,133)"/>
<path d="M0 0 C1.23556641 0.01740234 1.23556641 0.01740234 2.49609375 0.03515625 C3.32238281 0.04417969 4.14867187 0.05320312 5 0.0625 C5.63808594 0.07410156 6.27617187 0.08570313 6.93359375 0.09765625 C7.26359375 1.08765625 7.59359375 2.07765625 7.93359375 3.09765625 C5.29359375 3.09765625 2.65359375 3.09765625 -0.06640625 3.09765625 C-0.06640625 4.74765625 -0.06640625 6.39765625 -0.06640625 8.09765625 C1.06796875 8.22140625 2.20234375 8.34515625 3.37109375 8.47265625 C4.54671875 8.67890625 5.72234375 8.88515625 6.93359375 9.09765625 C7.26359375 9.75765625 7.59359375 10.41765625 7.93359375 11.09765625 C5.29359375 11.09765625 2.65359375 11.09765625 -0.06640625 11.09765625 C-0.06640625 12.74765625 -0.06640625 14.39765625 -0.06640625 16.09765625 C2.57359375 16.42765625 5.21359375 16.75765625 7.93359375 17.09765625 C7.60359375 17.75765625 7.27359375 18.41765625 6.93359375 19.09765625 C-0.81640625 19.22265625 -0.81640625 19.22265625 -3.06640625 18.09765625 C-3.09324937 15.28509344 -3.11316813 12.47278384 -3.12890625 9.66015625 C-3.13728516 8.85771484 -3.14566406 8.05527344 -3.15429688 7.22851562 C-3.16292055 5.18470404 -3.11868775 3.14081723 -3.06640625 1.09765625 C-2.06640625 0.09765625 -2.06640625 0.09765625 0 0 Z " fill="#6E6E6E" transform="translate(227.06640625,379.90234375)"/>
<path d="M0 0 C0 0.99 0 1.98 0 3 C-3 5 -3 5 -6 5 C-6 5.66 -6 6.32 -6 7 C-6.99 7 -7.98 7 -9 7 C-9.66 8.65 -10.32 10.3 -11 12 C-11.99 12 -12.98 12 -14 12 C-14.33 13.65 -14.66 15.3 -15 17 C-16.65 17.33 -18.3 17.66 -20 18 C-20.33 18.99 -20.66 19.98 -21 21 C-23.0625 21.6875 -23.0625 21.6875 -25 22 C-22.07757931 14.90980889 -8.20893518 0 0 0 Z " fill="#4919B3" transform="translate(171,120)"/>
<path d="M0 0 C2.29013653 3.4352048 2.17842973 4.985331 2 9 C1.01 9 0.02 9 -1 9 C-1.33 10.98 -1.66 12.96 -2 15 C-3.65 15.33 -5.3 15.66 -7 16 C-7.93423645 12.98968256 -8.04449911 12.13349732 -7 9 C-7.66 8.67 -8.32 8.34 -9 8 C-7 5 -7 5 -5.0625 4.5625 C-2.28387305 3.80469265 -1.52370913 2.36174914 0 0 Z " fill="#5D17E6" transform="translate(285,311)"/>
<path d="M0 0 C0.99 0.495 0.99 0.495 2 1 C2 3.31 2 5.62 2 8 C5.3 8 8.6 8 12 8 C11.79375 7.05125 11.5875 6.1025 11.375 5.125 C11.25125 4.09375 11.1275 3.0625 11 2 C11.66 1.34 12.32 0.68 13 0 C13.22181406 2.43695715 13.42791119 4.873526 13.625 7.3125 C13.68945312 8.00279297 13.75390625 8.69308594 13.8203125 9.40429688 C14.11802847 13.2559972 14.20763723 14.68854416 12 18 C11 13.25 11 13.25 11 11 C8.36 11 5.72 11 3 11 C2.67 13.31 2.34 15.62 2 18 C1.34 18 0.68 18 0 18 C0 12.06 0 6.12 0 0 Z " fill="#595959" transform="translate(202,380)"/>
<path d="M0 0 C1.09365603 4.1793479 1.20958825 7.66850942 1 12 C0.34 12.66 -0.32 13.32 -1 14 C-2.72899676 19.78893728 -3.52902976 25.50121756 -4.125 31.5 C-4.21136719 32.32242188 -4.29773438 33.14484375 -4.38671875 33.9921875 C-4.59623852 35.99426526 -4.79885044 37.99706397 -5 40 C-5.66 40 -6.32 40 -7 40 C-7.20519967 33.09396971 -6.47472403 26.77781962 -5.1875 20 C-5.02185547 19.06671875 -4.85621094 18.1334375 -4.68554688 17.171875 C-3.59001739 11.25188171 -2.07023301 5.65322793 0 0 Z " fill="#4418A0" transform="translate(125,178)"/>
<path d="M0 0 C0.99 0.495 0.99 0.495 2 1 C2 2.65 2 4.3 2 6 C2.48210937 5.566875 2.96421875 5.13375 3.4609375 4.6875 C4.09257812 4.130625 4.72421875 3.57375 5.375 3 C6.31472656 2.1646875 6.31472656 2.1646875 7.2734375 1.3125 C9 0 9 0 11 0 C9.55922954 3.36179774 7.75249979 5.59156268 5 8 C4.34 8 3.68 8 3 8 C3.76278623 9.2964351 4.53556959 10.58699148 5.3125 11.875 C5.74175781 12.59429687 6.17101562 13.31359375 6.61328125 14.0546875 C8.01752375 16.26846333 8.01752375 16.26846333 11 18 C10.01 18.33 9.02 18.66 8 19 C5.7363436 17.59554165 3.9791315 15.8032087 2 14 C1.34 15.32 0.68 16.64 0 18 C0 12.06 0 6.12 0 0 Z " fill="#858585" transform="translate(327,380)"/>
<path d="M0 0 C3.4375 0.8125 3.4375 0.8125 5.4375 3.8125 C2.10416667 3.8125 -1.22916667 3.8125 -4.5625 3.8125 C-7.39272097 7.80810608 -6.32460446 11.23987323 -5.5625 15.8125 C-1.34371808 16.00872241 1.60760894 15.61480168 5.4375 13.8125 C4.875 15.75 4.875 15.75 3.4375 17.8125 C0.125 18.8125 0.125 18.8125 -3.5625 18.8125 C-7.00044733 16.94405036 -8.25050257 15.68999279 -9.5625 12 C-9.5625 7.93871419 -8.47797193 5.36980501 -6.5625 1.8125 C-3.5625 -0.1875 -3.5625 -0.1875 0 0 Z " fill="#757575" transform="translate(189.5625,380.1875)"/>
<path d="M0 0 C1.27944215 3.41184572 0.73311754 6.28374185 0.25808716 9.82397461 C-0.13507525 13.13886786 -0.2222626 16.44587499 -0.31640625 19.78125 C-0.33718735 20.48020386 -0.35796844 21.17915771 -0.37937927 21.89929199 C-0.44398535 24.09944259 -0.50333909 26.29969696 -0.5625 28.5 C-0.60577017 30.00521842 -0.64938693 31.51042693 -0.69335938 33.015625 C-0.79957319 36.67697744 -0.90108196 40.33844234 -1 44 C-1.33 44 -1.66 44 -2 44 C-4.11096197 11.43087248 -4.11096197 11.43087248 -1 1 C-0.67 0.67 -0.34 0.34 0 0 Z " fill="#3E1591" transform="translate(130,202)"/>
<path d="M0 0 C-0.33 0.99 -0.66 1.98 -1 3 C-6.28 3.66 -11.56 4.32 -17 5 C-17.33 7.64 -17.66 10.28 -18 13 C-17.505 12.835 -17.01 12.67 -16.5 12.5 C-12.96555911 11.79311182 -9.60309299 11.93994845 -6 12 C-6 12.33 -6 12.66 -6 13 C-10.62 13.66 -15.24 14.32 -20 15 C-20 11.04 -20 7.08 -20 3 C-17.41747107 2.49550598 -14.83411297 1.99625699 -12.25 1.5 C-11.52039063 1.35691406 -10.79078125 1.21382813 -10.0390625 1.06640625 C-6.60656468 0.41111121 -3.50830509 0 0 0 Z " fill="#411796" transform="translate(249,334)"/>
<path d="M0 0 C3.47226667 3.19814036 5.30587154 5.64366968 7 10 C7.99 10.33 8.98 10.66 10 11 C11.36639342 12.6396721 12.6949419 14.31110128 14 16 C15.64783606 17.68528688 17.31002677 19.35697047 19 21 C18.34 21.33 17.68 21.66 17 22 C17 21.34 17 20.68 17 20 C15.68 19.67 14.36 19.34 13 19 C13 18.34 13 17.68 13 17 C12.1646875 16.9071875 12.1646875 16.9071875 11.3125 16.8125 C7.9437904 15.62889933 6.277228 13.70805492 4 11 C3.61500109 9.34450469 3.27206865 7.6777567 3 6 C2.01 5.34 1.02 4.68 0 4 C0 2.68 0 1.36 0 0 Z " fill="#5215B1" transform="translate(145,301)"/>
<path d="M0 0 C4.38296556 0.48699617 6.03183648 1.83395891 9 5 C9.99 5.33 10.98 5.66 12 6 C12.33 5.34 12.66 4.68 13 4 C13.66 4.33 14.32 4.66 15 5 C15 5.66 15 6.32 15 7 C15.99 7.33 16.98 7.66 18 8 C17.42415568 10.38564077 16.77772405 12.66682784 16 15 C15.43152344 14.40832031 14.86304688 13.81664062 14.27734375 13.20703125 C9.76354326 8.58773292 5.33243114 4.63059142 0 1 C0 0.67 0 0.34 0 0 Z " fill="#4F16B8" transform="translate(267,127)"/>
<path d="M0 0 C1.22589844 0.15275391 1.22589844 0.15275391 2.4765625 0.30859375 C3.41628906 0.43427734 3.41628906 0.43427734 4.375 0.5625 C4.705 1.5525 5.035 2.5425 5.375 3.5625 C1.745 3.2325 -1.885 2.9025 -5.625 2.5625 C-5.625 15.1025 -5.625 27.6425 -5.625 40.5625 C-5.955 40.5625 -6.285 40.5625 -6.625 40.5625 C-6.625 27.3625 -6.625 14.1625 -6.625 0.5625 C-4.10446405 -0.69776798 -2.7707902 -0.35624445 0 0 Z " fill="#001E43" transform="translate(377.625,108.4375)"/>
<path d="M0 0 C-0.3534658 2.56262706 -0.77470502 3.77470502 -2.625 5.625 C-5.80219629 7.46442943 -8.10602661 7.2968192 -11.75 7.1875 C-12.92046875 7.16042969 -14.0909375 7.13335937 -15.296875 7.10546875 C-16.18890625 7.07066406 -17.0809375 7.03585938 -18 7 C-14.97903433 4.50752478 -12.12076995 3.12043668 -8.4375 1.8125 C-7.48746094 1.46832031 -6.53742188 1.12414062 -5.55859375 0.76953125 C-3 0 -3 0 0 0 Z " fill="#5318C8" transform="translate(196,109)"/>
<path d="M0 0 C0.99 0 1.98 0 3 0 C3.66 1.65 4.32 3.3 5 5 C4.34 5 3.68 5 3 5 C3.01160156 5.69867188 3.02320313 6.39734375 3.03515625 7.1171875 C3.04869141 8.48230469 3.04869141 8.48230469 3.0625 9.875 C3.07410156 10.77992188 3.08570313 11.68484375 3.09765625 12.6171875 C3 15 3 15 2 17 C1.34 17 0.68 17 0 17 C0 11.39 0 5.78 0 0 Z " fill="#5E5E5E" transform="translate(366,381)"/>
<path d="M0 0 C4.43458973 1.3937282 6.87378374 3.60582235 10 7 C7.03 11.95 7.03 11.95 4 17 C3.67 15.68 3.34 14.36 3 13 C3.66 13 4.32 13 5 13 C5 12.01 5 11.02 5 10 C5.66 10 6.32 10 7 10 C6.34 8.35 5.68 6.7 5 5 C3.02 5 1.04 5 -1 5 C-1 5.66 -1 6.32 -1 7 C-1.66 7 -2.32 7 -3 7 C-1.125 2.25 -1.125 2.25 0 0 Z " fill="#411795" transform="translate(292,295)"/>
<path d="M0 0 C1.32 0.33 2.64 0.66 4 1 C2.52278578 4.45201639 0.56205999 6.64961936 -2.125 9.25 C-2.84945312 9.95640625 -3.57390625 10.6628125 -4.3203125 11.390625 C-4.87460938 11.92171875 -5.42890625 12.4528125 -6 13 C-6.33 12.01 -6.66 11.02 -7 10 C-7.66 9.67 -8.32 9.34 -9 9 C-8 8 -8 8 -5.4375 7.9375 C-4.2309375 7.9684375 -4.2309375 7.9684375 -3 8 C-3 6.35 -3 4.7 -3 3 C-2.01 2.67 -1.02 2.34 0 2 C0 1.34 0 0.68 0 0 Z " fill="#5016B5" transform="translate(165,132)"/>
<path d="M0 0 C1.65 1.32 3.3 2.64 5 4 C4.34 6.31 3.68 8.62 3 11 C2.38125 10.814375 1.7625 10.62875 1.125 10.4375 C-1.04160178 9.76313824 -1.04160178 9.76313824 -3 11 C-2.53199289 6.94393835 -2.12046792 3.53411321 0 0 Z " fill="#6017E7" transform="translate(135,286)"/>
<path d="M0 0 C0 1.65 0 3.3 0 5 C0.99 5 1.98 5 3 5 C3 5.66 3 6.32 3 7 C2.39414062 6.80664062 1.78828125 6.61328125 1.1640625 6.4140625 C-4.83842217 4.54867496 -10.8158897 3.11840293 -17 2 C-17 1.67 -17 1.34 -17 1 C-14.9168207 0.83141902 -12.83344956 0.66520745 -10.75 0.5 C-9.58984375 0.4071875 -8.4296875 0.314375 -7.234375 0.21875 C-4.82731342 0.05595356 -2.41256049 0 0 0 Z " fill="#4816AF" transform="translate(256,116)"/>
<path d="M0 0 C0.66 0 1.32 0 2 0 C3.09658936 3.28976808 2.79953138 4.71303767 2 8 C5.3 8 8.6 8 12 8 C12 8.33 12 8.66 12 9 C7.545 9.495 7.545 9.495 3 10 C2.67 12.64 2.34 15.28 2 18 C1.34 18 0.68 18 0 18 C0 12.06 0 6.12 0 0 Z " fill="#545454" transform="translate(280,380)"/>
<path d="M0 0 C1.85772162 0.08984301 3.71247985 0.24611861 5.5625 0.4375 C7.08037109 0.59025391 7.08037109 0.59025391 8.62890625 0.74609375 C9.80259766 0.87177734 9.80259766 0.87177734 11 1 C11.66 2.98 12.32 4.96 13 7 C12.01 7 11.02 7 10 7 C8.3125 5 8.3125 5 7 3 C3.51329166 4.1094072 0.22515763 5.26337666 -3 7 C-1.125 1.125 -1.125 1.125 0 0 Z " fill="#828282" transform="translate(346,391)"/>
<path d="M0 0 C-2.297221 1.74271938 -4.59866729 3.39911152 -7 5 C-8.36857539 10.47121786 -8.36857539 10.47121786 -6.5625 15.5 C-6.046875 15.995 -5.53125 16.49 -5 17 C-5.66 17.33 -6.32 17.66 -7 18 C-8.70840281 16.36587557 -9.93453047 15.13093906 -11 13 C-11.04160408 8.68981716 -10.70481446 5.07027381 -8.3125 1.4375 C-5.37710559 -0.38720463 -3.39456234 -0.30859658 0 0 Z " fill="#717171" transform="translate(313,380)"/>
<path d="M0 0 C2.97 0.33 5.94 0.66 9 1 C9 1.66 9 2.32 9 3 C9.84304687 2.96519531 10.68609375 2.93039062 11.5546875 2.89453125 C12.65039062 2.86746094 13.74609375 2.84039062 14.875 2.8125 C16.51082031 2.76029297 16.51082031 2.76029297 18.1796875 2.70703125 C19.11039063 2.80371094 20.04109375 2.90039062 21 3 C21.99 4.485 21.99 4.485 23 6 C18.56467958 7.40311604 15.21298974 6.10753215 10.9375 4.6875 C9.85758789 4.3481543 9.85758789 4.3481543 8.75585938 4.00195312 C5.49501822 2.95133857 2.86627418 1.91084946 0 0 Z " fill="#4C18B4" transform="translate(174,340)"/>
<path d="M0 0 C0.33 0 0.66 0 1 0 C1.22181406 2.43695715 1.42791119 4.873526 1.625 7.3125 C1.68945312 8.00279297 1.75390625 8.69308594 1.8203125 9.40429688 C2.11802847 13.2559972 2.20763723 14.68854416 0 18 C-1 13.25 -1 13.25 -1 11 C-2.918125 11.061875 -2.918125 11.061875 -4.875 11.125 C-7.0546875 11.1953125 -7.0546875 11.1953125 -9 11 C-9.66 10.34 -10.32 9.68 -11 9 C-7.37 9 -3.74 9 0 9 C-0.185625 7.88625 -0.37125 6.7725 -0.5625 5.625 C-1 2 -1 2 0 0 Z " fill="#ACACAC" transform="translate(214,380)"/>
<path d="M0 0 C0.66 0 1.32 0 2 0 C3 1 4 2 5 3 C7.09989652 4.17574711 7.09989652 4.17574711 9 5 C9 6.65 9 8.3 9 10 C10.32 10 11.64 10 13 10 C13.33 11.65 13.66 13.3 14 15 C7.88009424 11.63405183 4.03844826 6.62717791 0 1 C0 0.67 0 0.34 0 0 Z " fill="#4D16B2" transform="translate(140,312)"/>
<path d="M0 0 C0.33 0 0.66 0 1 0 C1 3.63 1 7.26 1 11 C-1.64 11.33 -4.28 11.66 -7 12 C-7.33 11.34 -7.66 10.68 -8 10 C-7.01 9.34 -6.02 8.68 -5 8 C-2.15291233 5.48786382 -0.54497739 3.81484173 0 0 Z " fill="#5E17EB" transform="translate(196,108)"/>
<path d="M0 0 C0.33 0.99 0.66 1.98 1 3 C2.65 2.67 4.3 2.34 6 2 C2.29939798 5.92488093 -1.4906925 9.02215543 -6 12 C-6.66 12 -7.32 12 -8 12 C-8 11.01 -8 10.02 -8 9 C-6.68 9 -5.36 9 -4 9 C-4 8.34 -4 7.68 -4 7 C-3.34 7 -2.68 7 -2 7 C-2 5.35 -2 3.7 -2 2 C-1.34 2 -0.68 2 0 2 C0 1.34 0 0.68 0 0 Z " fill="#4F16B1" transform="translate(277,324)"/>
<path d="M0 0 C0.66 0 1.32 0 2 0 C2 1.32 2 2.64 2 4 C4.97 4 7.94 4 11 4 C11.33 2.68 11.66 1.36 12 0 C12 1.98 12 3.96 12 6 C9.50331711 7.24834144 8.18670849 6.95155125 5.4375 6.625 C4.63183594 6.53476562 3.82617188 6.44453125 2.99609375 6.3515625 C1 6 1 6 0 5 C-0.04063832 3.33382885 -0.042721 1.66611905 0 0 Z " fill="#055583" transform="translate(208,342)"/>
<path d="M0 0 C0.99 0.33 1.98 0.66 3 1 C3.33 2.65 3.66 4.3 4 6 C1 8 1 8 -3 8 C-3.33 7.01 -3.66 6.02 -4 5 C-2.0625 2.3125 -2.0625 2.3125 0 0 Z " fill="#5D17EA" transform="translate(142,300)"/>
<path d="M0 0 C0.33 0 0.66 0 1 0 C1.64625456 3.06241127 2.29192853 6.12494467 2.9375 9.1875 C3.11990234 10.05181641 3.30230469 10.91613281 3.49023438 11.80664062 C4.34595855 15.86744081 5.19907784 19.92794314 6 24 C4.66666667 24 3.33333333 24 2 24 C1.66148822 21.31306278 1.329064 18.62559711 1 15.9375 C0.90460938 15.18533203 0.80921875 14.43316406 0.7109375 13.65820312 C0.15428098 9.06578683 -0.09829028 4.6257865 0 0 Z " fill="#4316A0" transform="translate(130,258)"/>
<path d="M0 0 C0.66 0.33 1.32 0.66 2 1 C1.04578192 2.14926266 0.08647955 3.29430541 -0.875 4.4375 C-1.40867187 5.07558594 -1.94234375 5.71367187 -2.4921875 6.37109375 C-4 8 -4 8 -6 9 C-8.3329866 9.04022391 -10.66706666 9.04320247 -13 9 C-10.15118272 6.82418313 -7.23915912 4.79062001 -4.25 2.8125 C-3.45078125 2.28269531 -2.6515625 1.75289063 -1.828125 1.20703125 C-1.22484375 0.80871094 -0.6215625 0.41039062 0 0 Z " fill="#4C14A9" transform="translate(269,322)"/>
<path d="M0 0 C0.33 0 0.66 0 1 0 C1.06058594 1.18335938 1.12117187 2.36671875 1.18359375 3.5859375 C1.61253139 11.7486984 2.0825965 19.87442613 3 28 C2.34 28 1.68 28 1 28 C0.0178006 24.72373625 -0.11580914 21.77211881 -0.09765625 18.359375 C-0.09443359 17.28945312 -0.09121094 16.21953125 -0.08789062 15.1171875 C-0.07951172 14.00601563 -0.07113281 12.89484375 -0.0625 11.75 C-0.05798828 10.62335938 -0.05347656 9.49671875 -0.04882812 8.3359375 C-0.03705397 5.55723783 -0.0206084 2.77864591 0 0 Z " fill="#501CBB" transform="translate(127,228)"/>
<path d="M0 0 C0.99 0.33 1.98 0.66 3 1 C-1 6 -5 11 -9 16 C-9.33 14.35 -9.66 12.7 -10 11 C-8.68 10.67 -7.36 10.34 -6 10 C-6 9.01 -6 8.02 -6 7 C-5.34 7 -4.68 7 -4 7 C-3.67 5.35 -3.34 3.7 -3 2 C-2.01 2 -1.02 2 0 2 C0 1.34 0 0.68 0 0 Z " fill="#4214A1" transform="translate(155,145)"/>
<path d="M0 0 C0.85709523 3.07394306 1.15444061 4.95647475 0 8 C-0.99 8.495 -0.99 8.495 -2 9 C-2.68472665 10.88764903 -2.68472665 10.88764903 -3.125 13.0625 C-3.29257813 13.79597656 -3.46015625 14.52945313 -3.6328125 15.28515625 C-3.75398437 15.85105469 -3.87515625 16.41695312 -4 17 C-4.99 17 -5.98 17 -7 17 C-5.1668733 11.00067626 -2.92678249 5.55079437 0 0 Z " fill="#4716A3" transform="translate(133,160)"/>
<path d="M0 0 C0.66 0.33 1.32 0.66 2 1 C1.04801289 2.64951226 0.08820855 4.29451508 -0.875 5.9375 C-1.40867188 6.85402344 -1.94234375 7.77054688 -2.4921875 8.71484375 C-4 11 -4 11 -6 12 C-6.33 12.99 -6.66 13.98 -7 15 C-7.66 15 -8.32 15 -9 15 C-7.61219205 11.10993227 -5.7847773 8.03441292 -3.375 4.6875 C-2.74335938 3.80449219 -2.11171875 2.92148438 -1.4609375 2.01171875 C-0.97882813 1.34785156 -0.49671875 0.68398437 0 0 Z " fill="#4617A7" transform="translate(144,143)"/>
<path d="M0 0 C4.84146109 1.46710942 8.55948972 4.3512744 12 8 C12 8.66 12 9.32 12 10 C11.01 10 10.02 10 9 10 C9 9.34 9 8.68 9 8 C8.2575 7.979375 7.515 7.95875 6.75 7.9375 C3.57208751 6.85412074 3.27248768 6.25525588 1.6875 3.4375 C1.130625 2.303125 0.57375 1.16875 0 0 Z " fill="#4D16A8" transform="translate(277,121)"/>
<path d="M0 0 C-0.33 1.32 -0.66 2.64 -1 4 C-2.65 4.33 -4.3 4.66 -6 5 C-6.33 5.99 -6.66 6.98 -7 8 C-9.0625 8.6875 -9.0625 8.6875 -11 9 C-9.55936614 4.67809842 -4.74032109 0 0 0 Z " fill="#4F17C8" transform="translate(157,133)"/>
<path d="M0 0 C0.66 1.32 1.32 2.64 2 4 C6.21878192 4.19622241 9.17010894 3.80230168 13 2 C12.4375 3.9375 12.4375 3.9375 11 6 C7.6875 7 7.6875 7 4 7 C1.0625 5.0625 1.0625 5.0625 -1 3 C-0.67 2.01 -0.34 1.02 0 0 Z " fill="#656565" transform="translate(182,392)"/>
<path d="M0 0 C0.33 0 0.66 0 1 0 C1.18451025 9.41002278 1.18451025 9.41002278 0 14 C-0.66 14 -1.32 14 -2 14 C-2.3690205 4.58997722 -2.3690205 4.58997722 0 0 Z " fill="#4F1BBC" transform="translate(120,204)"/>
<path d="M0 0 C0.33 0 0.66 0 1 0 C1 4.62 1 9.24 1 14 C0.34 14 -0.32 14 -1 14 C-1.33 10.7 -1.66 7.4 -2 4 C-1.34 4 -0.68 4 0 4 C0 2.68 0 1.36 0 0 Z " fill="#666666" transform="translate(244,384)"/>
<path d="M0 0 C-3.40219265 2.74792483 -7.48464588 6 -12 6 C-12 5.01 -12 4.02 -12 3 C-10.68 3 -9.36 3 -8 3 C-8 2.34 -8 1.68 -8 1 C-5.29120665 -0.35439668 -2.99066732 -0.06501451 0 0 Z " fill="#4317A4" transform="translate(269,336)"/>
<path d="M0 0 C-0.47202486 4.24822374 -2.96655518 6.19989709 -6 9 C-6.36521739 3.52173913 -6.36521739 3.52173913 -4.6875 1.125 C-3 0 -3 0 0 0 Z " fill="#5017B7" transform="translate(295,311)"/>
<path d="M0 0 C2.23960447 2.87949147 4.29864224 5.76742026 6 9 C5.67 9.66 5.34 10.32 5 11 C4.01 11 3.02 11 2 11 C2 9.35 2 7.7 2 6 C1.34 6 0.68 6 0 6 C-0.38218767 4.34385343 -0.71395102 2.67542976 -1 1 C-0.67 0.67 -0.34 0.34 0 0 Z " fill="#4617AB" transform="translate(139,290)"/>
<path d="M0 0 C0.99 0 1.98 0 3 0 C1.31326082 4.49797113 -0.81673892 8.72886302 -3 13 C-3.33 13 -3.66 13 -4 13 C-4 11.35 -4 9.7 -4 8 C-3.34 8 -2.68 8 -2 8 C-2 6.35 -2 4.7 -2 3 C-1.34 3 -0.68 3 0 3 C0 2.01 0 1.02 0 0 Z " fill="#4515A4" transform="translate(143,161)"/>
<path d="M0 0 C3 1 3 1 4.6875 4.0625 C5.120625 5.031875 5.55375 6.00125 6 7 C5.01 7 4.02 7 3 7 C2.67 6.34 2.34 5.68 2 5 C1.34 5.99 0.68 6.98 0 8 C-0.38063221 5.6739143 -0.71269945 3.33944736 -1 1 C-0.67 0.67 -0.34 0.34 0 0 Z " fill="#7E7E7E" transform="translate(243,380)"/>
<path d="M0 0 C2.475 0.99 2.475 0.99 5 2 C5 2.99 5 3.98 5 5 C3.02 5 1.04 5 -1 5 C-1 5.66 -1 6.32 -1 7 C-1.66 7 -2.32 7 -3 7 C-1.125 2.25 -1.125 2.25 0 0 Z " fill="#4A17A3" transform="translate(292,295)"/>
<path d="M0 0 C3.82524236 1.450954 5.19090966 3.38181932 7 7 C7 7.66 7 8.32 7 9 C7.66 9 8.32 9 9 9 C8.67 9.99 8.34 10.98 8 12 C6.84906075 10.5665848 5.70441965 9.12811091 4.5625 7.6875 C3.92441406 6.88699219 3.28632813 6.08648437 2.62890625 5.26171875 C1 3 1 3 0 0 Z " fill="#7A7A7A" transform="translate(370,386)"/>
<path d="M0 0 C2.97 0 5.94 0 9 0 C9.33 0.99 9.66 1.98 10 3 C7.03 3 4.06 3 1 3 C0.67 2.01 0.34 1.02 0 0 Z " fill="#646464" transform="translate(225,380)"/>
<path d="M0 0 C1.22589844 0.15275391 1.22589844 0.15275391 2.4765625 0.30859375 C3.41628906 0.43427734 3.41628906 0.43427734 4.375 0.5625 C4.705 1.5525 5.035 2.5425 5.375 3.5625 C1.415 3.2325 -2.545 2.9025 -6.625 2.5625 C-6.625 1.9025 -6.625 1.2425 -6.625 0.5625 C-4.10446405 -0.69776798 -2.7707902 -0.35624445 0 0 Z " fill="#083169" transform="translate(377.625,108.4375)"/>
<path d="M0 0 C5.76283104 -0.45496035 10.60568303 1.20900148 16 3 C16 3.33 16 3.66 16 4 C10.36718401 4.2396943 5.45461169 3.38529821 0 2 C0 1.34 0 0.68 0 0 Z " fill="#461698" transform="translate(238,106)"/>
<path d="M0 0 C0.66 0.33 1.32 0.66 2 1 C2 2.98 2 4.96 2 7 C1.401875 6.690625 0.80375 6.38125 0.1875 6.0625 C-2.08956772 4.89790296 -2.08956772 4.89790296 -5 4 C-5 3.34 -5 2.68 -5 2 C-2.625 0.9375 -2.625 0.9375 0 0 Z " fill="#4E16BD" transform="translate(254,331)"/>
<path d="M0 0 C3.3 0 6.6 0 10 0 C10.33 3.63 10.66 7.26 11 11 C10.01 11.495 10.01 11.495 9 12 C8.34 11.34 7.68 10.68 7 10 C7.66 10 8.32 10 9 10 C9 7.03 9 4.06 9 1 C6.03 1 3.06 1 0 1 C0 0.67 0 0.34 0 0 Z " fill="#5E26BA" transform="translate(188,336)"/>
<path d="M0 0 C1.1589934 4.16863754 1.27896343 7.67606689 1 12 C0.01 12.66 -0.98 13.32 -2 14 C-3.81975482 8.87160006 -1.8599099 4.82315618 0 0 Z " fill="#5217B6" transform="translate(125,178)"/>
<path d="M0 0 C0.66 0 1.32 0 2 0 C2.5345256 1.24420647 3.05208611 2.49570936 3.5625 3.75 C3.85253906 4.44609375 4.14257812 5.1421875 4.44140625 5.859375 C5.07831803 8.30012784 4.80248831 9.6403655 4 12 C3.3291288 10.3767313 2.66342971 8.75132422 2 7.125 C1.62875 6.22007812 1.2575 5.31515625 0.875 4.3828125 C0 2 0 2 0 0 Z " fill="#48169F" transform="translate(125,283)"/>
<path d="M0 0 C2.96404505 2.80804268 5.44499019 5.18315774 7 9 C6.01 9.495 6.01 9.495 5 10 C4.15801693 8.90241493 3.32669329 7.79664683 2.5 6.6875 C2.0359375 6.07261719 1.571875 5.45773437 1.09375 4.82421875 C0 3 0 3 0 0 Z " fill="#6D6D6D" transform="translate(248,387)"/>
<path d="M0 0 C-2.297221 1.74271938 -4.59866729 3.39911152 -7 5 C-7.66 5.99 -8.32 6.98 -9 8 C-9.75 6.25 -9.75 6.25 -10 4 C-7.14593539 -0.10985304 -4.8398506 -0.43998642 0 0 Z " fill="#494949" transform="translate(313,380)"/>
<path d="M0 0 C4.08378283 0.74250597 8.01939223 1.82923301 12 3 C12 3.33 12 3.66 12 4 C7.45194365 4.17835515 4.1205746 3.99785435 0 2 C0 1.34 0 0.68 0 0 Z " fill="#4B16A2" transform="translate(182,332)"/>
<path d="M0 0 C1.2065625 0.0309375 1.2065625 0.0309375 2.4375 0.0625 C0.7875 2.0425 -0.8625 4.0225 -2.5625 6.0625 C-3.2225 5.0725 -3.8825 4.0825 -4.5625 3.0625 C-3.06867284 0.07484568 -3.06867284 0.07484568 0 0 Z " fill="#4815AD" transform="translate(286.5625,319.9375)"/>
<path d="M0 0 C1.98 0 3.96 0 6 0 C6 0.99 6 1.98 6 3 C3.69 3 1.38 3 -1 3 C-0.67 2.01 -0.34 1.02 0 0 Z " fill="#636363" transform="translate(266,390)"/>
<path d="M0 0 C0 0.99 0 1.98 0 3 C-3 5 -3 5 -7 5 C-7 4.34 -7 3.68 -7 3 C-2.61538462 0 -2.61538462 0 0 0 Z " fill="#4F19AF" transform="translate(171,120)"/>
<path d="M0 0 C1.1446875 1.175625 1.1446875 1.175625 2.3125 2.375 C4.90891805 5.07257717 4.90891805 5.07257717 8 7 C7.01 7.33 6.02 7.66 5 8 C2.5 5.6875 2.5 5.6875 0 3 C0 2.01 0 1.02 0 0 Z " fill="#696969" transform="translate(330,391)"/>
<path d="M0 0 C1.0326802 2.78823655 1.04509293 3.8677274 0.0625 6.75 C-0.288125 7.4925 -0.63875 8.235 -1 9 C-1.99 9 -2.98 9 -4 9 C-3.34 7.02 -2.68 5.04 -2 3 C-1.34 3 -0.68 3 0 3 C0 2.01 0 1.02 0 0 Z " fill="#0169B8" transform="translate(382,337)"/>
<path d="M0 0 C1.98 1.65 3.96 3.3 6 5 C5.67 5.66 5.34 6.32 5 7 C2.5 5.75 2.5 5.75 0 4 C0 2.68 0 1.36 0 0 Z " fill="#4414A1" transform="translate(289,131)"/>
<path d="M0 0 C0.66 0.33 1.32 0.66 2 1 C2 1.66 2 2.32 2 3 C1.01 3 0.02 3 -1 3 C-1 3.66 -1 4.32 -1 5 C-2.98 5.66 -4.96 6.32 -7 7 C-4.66666667 4.66666667 -2.33333333 2.33333333 0 0 Z " fill="#401598" transform="translate(163,124)"/>
<path d="M0 0 C2.89932357 2.39509338 3.50168276 4.31245243 4 8 C3.01 8 2.02 8 1 8 C0.34 5.69 -0.32 3.38 -1 1 C-0.67 0.67 -0.34 0.34 0 0 Z " fill="#6A6A6A" transform="translate(352,384)"/>
<path d="M0 0 C2.97 0.33 5.94 0.66 9 1 C9.33 1.99 9.66 2.98 10 4 C6.7 3.01 3.4 2.02 0 1 C0 0.67 0 0.34 0 0 Z " fill="#43179B" transform="translate(174,340)"/>
<path d="M0 0 C3.37462715 0.54723683 5.08235 1.0549 8 3 C8 3.66 8 4.32 8 5 C4.62496331 3.8141763 2.35277269 2.72426311 0 0 Z " fill="#4217A6" transform="translate(159,331)"/>
<path d="M0 0 C1.31602523 0.61754259 2.62773556 1.24428742 3.9375 1.875 C4.66839844 2.22304688 5.39929688 2.57109375 6.15234375 2.9296875 C8 4 8 4 9 6 C6.03 5.01 3.06 4.02 0 3 C0 2.01 0 1.02 0 0 Z " fill="#471399" transform="translate(164,322)"/>
<path d="M0 0 C1 2 1 2 0.375 4.0625 C-1 6 -1 6 -3.625 6.75 C-4.800625 6.87375 -4.800625 6.87375 -6 7 C-4.02 4.69 -2.04 2.38 0 0 Z " fill="#411291" transform="translate(277,315)"/>
<path d="M0 0 C-4.625 4 -4.625 4 -8 4 C-8 3.34 -8 2.68 -8 2 C-7.34 2 -6.68 2 -6 2 C-6 1.34 -6 0.68 -6 0 C-3.50907189 -1.24546405 -2.58919267 -0.7767578 0 0 Z " fill="#5919E0" transform="translate(297,300)"/>
<path d="M0 0 C-0.33 1.32 -0.66 2.64 -1 4 C-1.66 4 -2.32 4 -3 4 C-3 3.34 -3 2.68 -3 2 C-4.98 2.33 -6.96 2.66 -9 3 C-5.73209435 0.82139623 -3.91954654 0 0 0 Z " fill="#4517A7" transform="translate(196,109)"/>
<path d="M0 0 C3 1.8125 3 1.8125 6 4 C6 4.99 6 5.98 6 7 C5.67 6.34 5.34 5.68 5 5 C2.97536745 4.34786708 2.97536745 4.34786708 1 4 C0.67 2.68 0.34 1.36 0 0 Z " fill="#491B98" transform="translate(157,316)"/>
<path d="M0 0 C1.9375 0.625 1.9375 0.625 4 2 C4.75 5.125 4.75 5.125 5 8 C2.20127563 5.47211993 0.54226981 3.79588866 0 0 Z " fill="#4416A2" transform="translate(135,304)"/>
<path d="M0 0 C1.2065625 0.0309375 1.2065625 0.0309375 2.4375 0.0625 C0.6875 3.9375 0.6875 3.9375 -1.5625 5.0625 C-1.5625 4.0725 -1.5625 3.0825 -1.5625 2.0625 C-2.2225 1.7325 -2.8825 1.4025 -3.5625 1.0625 C-2.5625 0.0625 -2.5625 0.0625 0 0 Z " fill="#4C15A5" transform="translate(159.5625,139.9375)"/>
<path d="M0 0 C5.75 1.75 5.75 1.75 8 4 C4.37673261 5.2077558 3.35853631 4.54311128 0 3 C0 2.01 0 1.02 0 0 Z " fill="#42159B" transform="translate(261,112)"/>
<path d="M0 0 C0.66 0 1.32 0 2 0 C2 0.66 2 1.32 2 2 C1.34 2 0.68 2 0 2 C0 1.34 0 0.68 0 0 Z " fill="#3F3F3F" transform="translate(331,380)"/>
<path d="" fill="#000000" transform="translate(0,0)"/>
</svg>
